<svg id="Icon_calendar" data-name="Icon calendar" xmlns="http://www.w3.org/2000/svg" xmlns:xlink="http://www.w3.org/1999/xlink" width="42" height="42" viewBox="0 0 32 32">
  <defs>
    <clipPath id="clip-path">
      <path id="Path_190" data-name="Path 190" d="M64.769-516.438H68.75v-3.857H64.769Zm4.865,0h4.423v-3.857H69.635Zm-4.865-4.714H68.75v-4.286H64.769Zm4.865,0h4.423v-4.286H69.635Zm-4.865-5.143H68.75v-3.857H64.769Zm10.173,9.857h4.423v-3.857H74.942Zm-5.308-9.857h4.423v-3.857H69.635Zm10.615,9.857h3.981v-3.857H80.25Zm-5.308-4.714h4.423v-4.286H74.942Zm-4.865-11.571v-3.857a.406.406,0,0,0-.131-.3.432.432,0,0,0-.311-.127H68.75a.432.432,0,0,0-.311.127.406.406,0,0,0-.131.3v3.857a.406.406,0,0,0,.131.3.432.432,0,0,0,.311.127h.885a.432.432,0,0,0,.311-.127A.406.406,0,0,0,70.077-532.723ZM80.25-521.152h3.981v-4.286H80.25Zm-5.308-5.143h4.423v-3.857H74.942Zm5.308,0h3.981v-3.857H80.25Zm.442-6.429v-3.857a.406.406,0,0,0-.131-.3.432.432,0,0,0-.311-.127h-.885a.432.432,0,0,0-.311.127.406.406,0,0,0-.131.3v3.857a.406.406,0,0,0,.131.3.432.432,0,0,0,.311.127h.885a.432.432,0,0,0,.311-.127A.406.406,0,0,0,80.692-532.723ZM86-533.581v17.143a1.623,1.623,0,0,1-.525,1.205,1.727,1.727,0,0,1-1.244.509H64.769a1.727,1.727,0,0,1-1.244-.509A1.623,1.623,0,0,1,63-516.438v-17.143a1.623,1.623,0,0,1,.525-1.205,1.727,1.727,0,0,1,1.244-.509h1.769v-1.286a2.032,2.032,0,0,1,.65-1.513,2.164,2.164,0,0,1,1.562-.629h.885a2.164,2.164,0,0,1,1.562.629,2.032,2.032,0,0,1,.65,1.513v1.286h5.308v-1.286a2.032,2.032,0,0,1,.65-1.513,2.164,2.164,0,0,1,1.562-.629h.885a2.164,2.164,0,0,1,1.562.629,2.032,2.032,0,0,1,.65,1.513v1.286h1.769a1.727,1.727,0,0,1,1.244.509A1.623,1.623,0,0,1,86-533.581Z" transform="translate(-63 538.723)" fill="#909090" clip-rule="evenodd"/>
    </clipPath>
    <clipPath id="clip-path-2">
      <path id="Path_189" data-name="Path 189" d="M0-244.364H297.563V-896H0Z" transform="translate(0 896)" fill="#909090"/>
    </clipPath>
  </defs>
  <g id="Btn_icon" data-name="Btn icon" transform="translate(5 4)">
    <g id="Group_207" data-name="Group 207" clip-path="url(#clip-path)">
      <g id="Group_206" data-name="Group 206" transform="translate(-45.281 -259.838)" clip-path="url(#clip-path-2)">
        <path id="Path_188" data-name="Path 188" d="M58-543.723H88.188v31.273H58Z" transform="translate(-16.312 799.925)" fill="#909090"/>
      </g>
    </g>
  </g>
  <rect id="Rectangle_277" data-name="Rectangle 277" width="32" height="32" fill="none"/>
</svg>
